<?xml version="1.0" standalone="no"?>
<!DOCTYPE svg PUBLIC "-//W3C//DTD SVG 20010904//EN"
 "http://www.w3.org/TR/2001/REC-SVG-20010904/DTD/svg10.dtd">
<svg version="1.0" xmlns="http://www.w3.org/2000/svg"
 width="816.000000pt" height="816.000000pt" viewBox="0 0 816.000000 816.000000"
 preserveAspectRatio="xMidYMid meet">
<metadata>
Created by potrace 1.14, written by Peter Selinger 2001-2017
</metadata>
<g transform="translate(0.000000,816.000000) scale(0.100000,-0.100000)"
fill="#000000" stroke="none">
<path d="M560 6963 l0 -1198 76 115 c110 165 211 298 342 450 71 82 307 318
392 390 41 36 77 67 80 71 3 3 23 18 45 35 21 16 47 36 56 44 22 19 51 42 119
90 30 22 60 43 65 48 6 4 28 19 50 32 22 13 42 27 45 30 20 25 423 250 447
250 7 0 13 4 13 9 0 5 10 11 23 15 25 6 20 4 72 31 l39 21 1 382 0 382 -932 0
-933 0 0 -1197z"/>
<path d="M3977 7114 c-1 -1 -49 -4 -107 -8 -142 -8 -262 -20 -310 -31 -3 0
-27 -4 -53 -9 -27 -4 -59 -9 -70 -12 -12 -2 -35 -7 -52 -9 -16 -3 -37 -8 -45
-10 -8 -2 -26 -6 -40 -9 -14 -3 -68 -16 -120 -31 -52 -14 -106 -28 -119 -31
-13 -3 -32 -9 -43 -15 -10 -5 -18 -7 -18 -3 0 3 -6 2 -12 -3 -7 -6 -44 -21
-83 -33 -249 -82 -672 -303 -852 -447 -24 -19 -43 -31 -43 -26 0 4 -4 3 -8 -3
-4 -5 -41 -37 -82 -69 -41 -32 -84 -67 -95 -76 -105 -93 -141 -126 -219 -204
-105 -105 -182 -191 -260 -290 -30 -38 -63 -80 -73 -91 -10 -12 -22 -28 -28
-36 -61 -93 -137 -205 -143 -213 -21 -28 -94 -159 -166 -300 -42 -82 -128
-276 -132 -295 0 -3 -5 -16 -11 -30 -27 -67 -103 -303 -118 -365 -40 -173 -70
-328 -81 -420 -2 -22 -6 -49 -9 -60 -20 -94 -27 -579 -11 -750 12 -121 14
-140 16 -140 1 0 3 -16 5 -35 4 -38 10 -74 27 -165 6 -33 11 -67 12 -75 1 -9
5 -21 10 -28 4 -6 5 -12 2 -12 -4 0 58 -239 76 -290 3 -8 11 -35 19 -60 7 -25
16 -49 21 -55 4 -5 8 -15 8 -22 0 -42 138 -352 231 -520 18 -32 37 -67 43 -78
6 -11 13 -22 16 -25 3 -3 16 -25 29 -50 14 -25 31 -51 38 -58 7 -7 13 -17 13
-21 0 -4 11 -21 25 -37 14 -16 25 -33 25 -37 0 -5 6 -14 12 -21 7 -8 20 -23
28 -36 29 -42 115 -155 135 -176 11 -12 43 -49 70 -83 93 -114 482 -481 510
-481 4 0 12 -6 19 -13 7 -6 25 -21 40 -32 16 -11 47 -34 70 -50 142 -105 403
-253 586 -333 167 -74 437 -169 525 -186 11 -2 38 -9 60 -14 22 -6 51 -13 65
-16 91 -20 129 -27 160 -32 19 -2 44 -7 56 -9 122 -26 297 -39 544 -40 239 0
348 7 508 31 20 3 51 7 67 10 216 29 580 135 789 228 32 14 65 26 72 26 8 0
14 5 14 10 0 6 6 10 13 10 6 0 33 11 58 25 26 13 49 21 53 18 3 -4 6 -1 6 5 0
6 16 16 35 23 19 7 35 17 35 21 0 4 6 8 14 8 8 0 30 9 48 21 18 11 85 53 148
92 63 39 117 75 118 79 2 4 8 8 14 8 5 0 16 6 23 12 31 28 44 38 51 38 3 0 20
11 38 25 17 14 41 34 54 43 12 9 28 22 35 28 6 5 44 37 82 69 114 96 255 233
263 256 2 5 10 9 18 9 8 0 14 3 14 8 0 4 10 18 23 32 116 128 221 261 312 395
73 107 185 292 185 305 0 6 4 10 10 10 5 0 9 3 8 8 -1 4 23 57 53 117 73 148
163 361 174 408 1 7 5 19 8 27 25 66 101 344 112 413 3 18 8 39 10 47 2 8 7
38 11 65 3 28 8 52 9 55 2 3 6 37 10 75 4 39 9 72 10 75 19 31 27 569 11 730
-13 142 -28 249 -51 365 -2 11 -6 31 -8 45 -17 91 -70 292 -101 380 -9 25 -16
53 -16 63 0 9 -4 17 -8 17 -5 0 -9 6 -9 13 0 41 -224 535 -266 586 -7 9 -19
30 -27 46 -8 17 -18 32 -21 35 -3 3 -19 28 -35 55 -15 28 -36 59 -46 69 -10
11 -18 25 -18 32 0 7 -3 14 -8 16 -4 2 -25 27 -46 57 -42 59 -52 73 -77 100
-9 10 -18 23 -20 29 -8 22 -160 191 -278 309 -101 101 -229 215 -321 286 -8 7
-33 26 -55 43 -61 47 -240 165 -335 222 -84 49 -322 172 -333 172 -4 0 -30 11
-59 24 -91 42 -278 110 -373 136 -16 5 -57 16 -90 25 -33 9 -69 18 -80 21 -11
2 -31 6 -45 9 -14 4 -34 8 -45 10 -11 3 -30 7 -42 10 -45 10 -59 13 -108 20
-27 4 -59 9 -70 11 -43 6 -171 22 -185 22 -8 0 -53 4 -100 7 -73 6 -328 13
-333 9z m303 -1895 c122 -14 317 -64 405 -104 68 -30 110 -48 115 -49 3 -1 10
-4 15 -8 6 -3 33 -18 60 -33 75 -42 208 -132 250 -171 21 -19 39 -34 41 -34
11 0 154 -152 223 -236 29 -35 116 -172 150 -236 55 -101 133 -302 147 -375 2
-13 6 -33 8 -45 2 -13 7 -30 10 -38 5 -15 10 -51 23 -160 13 -115 7 -319 -13
-450 -11 -74 -56 -235 -89 -325 -68 -182 -184 -374 -310 -513 -88 -98 -155
-157 -290 -259 -37 -28 -101 -67 -107 -65 -5 1 -8 -2 -8 -6 0 -11 -194 -103
-285 -136 -97 -34 -205 -62 -280 -71 -11 -1 -20 -3 -20 -4 0 -5 -153 -14 -250
-15 -191 0 -364 28 -535 88 -124 44 -358 163 -368 188 -2 4 -9 8 -16 8 -7 0
-21 8 -32 18 -10 9 -35 29 -54 43 -133 100 -275 255 -374 407 -70 109 -153
274 -163 325 -2 10 -9 30 -17 45 -7 15 -17 43 -22 62 -4 19 -9 40 -10 45 -42
154 -58 280 -57 450 0 121 6 225 13 225 3 0 6 16 7 35 2 46 37 189 70 285 28
85 121 283 134 288 5 2 9 12 9 22 0 10 3 20 8 22 4 2 27 32 52 68 24 36 48 70
54 76 6 7 22 26 36 44 26 34 173 184 206 210 64 51 144 110 179 132 212 133
457 221 676 244 35 3 66 8 68 10 4 3 307 -2 341 -7z"/>
</g>
</svg>
