<svg width="44" height="51" viewBox="0 0 44 51" fill="none" xmlns="http://www.w3.org/2000/svg">
<path fill-rule="evenodd" clip-rule="evenodd" d="M22 51C34.1503 51 44 41.0469 44 28.7692C44 16.4915 34.1503 6.53846 22 6.53846C9.84974 6.53846 0 16.4915 0 28.7692C0 41.0469 9.84974 51 22 51ZM22 39.2308C27.7178 39.2308 32.3529 34.547 32.3529 28.7692C32.3529 22.9915 27.7178 18.3077 22 18.3077C16.2822 18.3077 11.6471 22.9915 11.6471 28.7692C11.6471 34.547 16.2822 39.2308 22 39.2308Z" fill="#ECF5FF"/>
<path d="M11.6471 0H0V14.985C2.75657 10.5022 6.81762 6.92382 11.6471 4.79161V0Z" fill="#ECF5FF"/>
</svg>
